<?xml version="1.0" encoding="UTF-8" standalone="no"?>
<!DOCTYPE svg PUBLIC "-//W3C//DTD SVG 1.1//EN"
 "http://www.w3.org/Graphics/SVG/1.1/DTD/svg11.dtd">
<!-- Generated by graphviz version 2.38.0 (20140413.2041)
 -->
<!-- Title: G Pages: 1 -->
<svg width="626pt" height="484pt"
 viewBox="0.00 0.00 625.50 484.00" xmlns="http://www.w3.org/2000/svg" xmlns:xlink="http://www.w3.org/1999/xlink">
<g id="graph0" class="graph" transform="scale(1 1) rotate(0) translate(4 480)">
<title>G</title>
<polygon fill="white" stroke="none" points="-4,4 -4,-480 621.5,-480 621.5,4 -4,4"/>
<!-- jkphl/rdfa&#45;lite&#45;microdata -->
<g id="node1" class="node"><title>jkphl/rdfa&#45;lite&#45;microdata</title>
<path fill="#eeeeee" stroke="black" stroke-width="2" d="M139,-476C139,-476 12,-476 12,-476 6,-476 0,-470 0,-464 0,-464 0,-452 0,-452 0,-446 6,-440 12,-440 12,-440 139,-440 139,-440 145,-440 151,-446 151,-452 151,-452 151,-464 151,-464 151,-470 145,-476 139,-476"/>
<text text-anchor="middle" x="75.5" y="-454.3" font-family="Times,serif" font-size="14.00" fill="#314b5f">jkphl/rdfa&#45;lite&#45;microdata</text>
</g>
<!-- php -->
<g id="node2" class="node"><title>php</title>
<path fill="#eeeeee" stroke="black" d="M238.5,-36C238.5,-36 208.5,-36 208.5,-36 202.5,-36 196.5,-30 196.5,-24 196.5,-24 196.5,-12 196.5,-12 196.5,-6 202.5,-0 208.5,-0 208.5,-0 238.5,-0 238.5,-0 244.5,-0 250.5,-6 250.5,-12 250.5,-12 250.5,-24 250.5,-24 250.5,-30 244.5,-36 238.5,-36"/>
<text text-anchor="middle" x="223.5" y="-14.3" font-family="Times,serif" font-size="14.00" fill="#314b5f">php</text>
</g>
<!-- jkphl/rdfa&#45;lite&#45;microdata&#45;&gt;php -->
<g id="edge1" class="edge"><title>jkphl/rdfa&#45;lite&#45;microdata&#45;&gt;php</title>
<path fill="none" stroke="#1a2833" d="M63.2587,-439.906C53.1657,-424.112 40.5,-399.591 40.5,-376 40.5,-376 40.5,-376 40.5,-100 40.5,-36.8095 132.867,-22.5225 186.357,-19.5467"/>
<polygon fill="#1a2833" stroke="#1a2833" points="186.665,-23.0365 196.498,-19.0913 186.351,-16.0436 186.665,-23.0365"/>
<text text-anchor="middle" x="53" y="-248" font-family="Times,serif" font-size="10.00" fill="#767676">&gt;=5.5</text>
</g>
<!-- jkphl/dom&#45;factory -->
<g id="node3" class="node"><title>jkphl/dom&#45;factory</title>
<path fill="#eeeeee" stroke="black" d="M259.5,-393C259.5,-393 125.5,-393 125.5,-393 119.5,-393 113.5,-387 113.5,-381 113.5,-381 113.5,-369 113.5,-369 113.5,-363 119.5,-357 125.5,-357 125.5,-357 259.5,-357 259.5,-357 265.5,-357 271.5,-363 271.5,-369 271.5,-369 271.5,-381 271.5,-381 271.5,-387 265.5,-393 259.5,-393"/>
<text text-anchor="middle" x="192.5" y="-371.3" font-family="Times,serif" font-size="14.00" fill="#314b5f">jkphl/dom&#45;factory: v0.1.2</text>
</g>
<!-- jkphl/rdfa&#45;lite&#45;microdata&#45;&gt;jkphl/dom&#45;factory -->
<g id="edge2" class="edge"><title>jkphl/rdfa&#45;lite&#45;microdata&#45;&gt;jkphl/dom&#45;factory</title>
<path fill="none" stroke="#1a2833" d="M100.313,-439.822C117.531,-427.902 140.655,-411.892 159.436,-398.89"/>
<polygon fill="#1a2833" stroke="#1a2833" points="161.493,-401.723 167.723,-393.153 157.509,-395.968 161.493,-401.723"/>
<text text-anchor="middle" x="154" y="-414" font-family="Times,serif" font-size="10.00" fill="#767676">^0.1.2</text>
</g>
<!-- jkphl/dom&#45;factory&#45;&gt;php -->
<g id="edge11" class="edge"><title>jkphl/dom&#45;factory&#45;&gt;php</title>
<path fill="none" stroke="#1a2833" d="M141.984,-356.916C114.682,-344.152 86.5,-323.572 86.5,-293 86.5,-293 86.5,-293 86.5,-100 86.5,-53.3858 145.996,-33.0324 186.572,-24.5717"/>
<polygon fill="#1a2833" stroke="#1a2833" points="187.278,-28.0002 196.433,-22.6682 185.951,-21.1271 187.278,-28.0002"/>
<text text-anchor="middle" x="99" y="-206.5" font-family="Times,serif" font-size="10.00" fill="#767676">&gt;=5.6</text>
</g>
<!-- guzzlehttp/guzzle -->
<g id="node4" class="node"><title>guzzlehttp/guzzle</title>
<path fill="#eeeeee" stroke="black" d="M283,-310C283,-310 160,-310 160,-310 154,-310 148,-304 148,-298 148,-298 148,-286 148,-286 148,-280 154,-274 160,-274 160,-274 283,-274 283,-274 289,-274 295,-280 295,-286 295,-286 295,-298 295,-298 295,-304 289,-310 283,-310"/>
<text text-anchor="middle" x="221.5" y="-288.3" font-family="Times,serif" font-size="14.00" fill="#314b5f">guzzlehttp/guzzle: 6.2.3</text>
</g>
<!-- jkphl/dom&#45;factory&#45;&gt;guzzlehttp/guzzle -->
<g id="edge9" class="edge"><title>jkphl/dom&#45;factory&#45;&gt;guzzlehttp/guzzle</title>
<path fill="none" stroke="#1a2833" d="M198.65,-356.822C202.495,-346.083 207.528,-332.025 211.892,-319.837"/>
<polygon fill="#1a2833" stroke="#1a2833" points="215.283,-320.748 215.359,-310.153 208.693,-318.388 215.283,-320.748"/>
<text text-anchor="middle" x="218.5" y="-331" font-family="Times,serif" font-size="10.00" fill="#767676">^6.2</text>
</g>
<!-- masterminds/html5 -->
<g id="node8" class="node"><title>masterminds/html5</title>
<path fill="#eeeeee" stroke="black" d="M582.5,-310C582.5,-310 448.5,-310 448.5,-310 442.5,-310 436.5,-304 436.5,-298 436.5,-298 436.5,-286 436.5,-286 436.5,-280 442.5,-274 448.5,-274 448.5,-274 582.5,-274 582.5,-274 588.5,-274 594.5,-280 594.5,-286 594.5,-286 594.5,-298 594.5,-298 594.5,-304 588.5,-310 582.5,-310"/>
<text text-anchor="middle" x="515.5" y="-288.3" font-family="Times,serif" font-size="14.00" fill="#314b5f">masterminds/html5: 2.2.2</text>
</g>
<!-- jkphl/dom&#45;factory&#45;&gt;masterminds/html5 -->
<g id="edge10" class="edge"><title>jkphl/dom&#45;factory&#45;&gt;masterminds/html5</title>
<path fill="none" stroke="#1a2833" d="M260.605,-356.921C312.355,-343.943 383.598,-326.078 437.611,-312.532"/>
<polygon fill="#1a2833" stroke="#1a2833" points="438.64,-315.883 447.488,-310.056 436.937,-309.093 438.64,-315.883"/>
<text text-anchor="middle" x="382.5" y="-331" font-family="Times,serif" font-size="10.00" fill="#767676">^2.2</text>
</g>
<!-- guzzlehttp/guzzle&#45;&gt;php -->
<g id="edge5" class="edge"><title>guzzlehttp/guzzle&#45;&gt;php</title>
<path fill="none" stroke="#1a2833" d="M196.533,-273.939C160.393,-246.939 99.953,-191.785 120.5,-137 134.976,-98.4028 168.425,-64.1398 193.301,-42.6122"/>
<polygon fill="#1a2833" stroke="#1a2833" points="195.656,-45.2047 201.042,-36.0808 191.142,-39.8548 195.656,-45.2047"/>
<text text-anchor="middle" x="133" y="-152.5" font-family="Times,serif" font-size="10.00" fill="#767676">&gt;=5.5</text>
</g>
<!-- guzzlehttp/promises -->
<g id="node5" class="node"><title>guzzlehttp/promises</title>
<path fill="#eeeeee" stroke="black" d="M310.5,-173C310.5,-173 166.5,-173 166.5,-173 160.5,-173 154.5,-167 154.5,-161 154.5,-161 154.5,-149 154.5,-149 154.5,-143 160.5,-137 166.5,-137 166.5,-137 310.5,-137 310.5,-137 316.5,-137 322.5,-143 322.5,-149 322.5,-149 322.5,-161 322.5,-161 322.5,-167 316.5,-173 310.5,-173"/>
<text text-anchor="middle" x="238.5" y="-151.3" font-family="Times,serif" font-size="14.00" fill="#314b5f">guzzlehttp/promises: v1.3.1</text>
</g>
<!-- guzzlehttp/guzzle&#45;&gt;guzzlehttp/promises -->
<g id="edge3" class="edge"><title>guzzlehttp/guzzle&#45;&gt;guzzlehttp/promises</title>
<path fill="none" stroke="#1a2833" d="M223.653,-273.902C226.524,-251.103 231.64,-210.479 235.051,-183.386"/>
<polygon fill="#1a2833" stroke="#1a2833" points="238.534,-183.744 236.311,-173.385 231.589,-182.87 238.534,-183.744"/>
<text text-anchor="middle" x="236.5" y="-248" font-family="Times,serif" font-size="10.00" fill="#767676">^1.0</text>
</g>
<!-- guzzlehttp/psr7 -->
<g id="node6" class="node"><title>guzzlehttp/psr7</title>
<path fill="#eeeeee" stroke="black" d="M393,-227C393,-227 282,-227 282,-227 276,-227 270,-221 270,-215 270,-215 270,-203 270,-203 270,-197 276,-191 282,-191 282,-191 393,-191 393,-191 399,-191 405,-197 405,-203 405,-203 405,-215 405,-215 405,-221 399,-227 393,-227"/>
<text text-anchor="middle" x="337.5" y="-205.3" font-family="Times,serif" font-size="14.00" fill="#314b5f">guzzlehttp/psr7: 1.4.2</text>
</g>
<!-- guzzlehttp/guzzle&#45;&gt;guzzlehttp/psr7 -->
<g id="edge4" class="edge"><title>guzzlehttp/guzzle&#45;&gt;guzzlehttp/psr7</title>
<path fill="none" stroke="#1a2833" d="M246.101,-273.822C263.172,-261.902 286.099,-245.892 304.719,-232.89"/>
<polygon fill="#1a2833" stroke="#1a2833" points="306.74,-235.748 312.935,-227.153 302.732,-230.009 306.74,-235.748"/>
<text text-anchor="middle" x="295.5" y="-248" font-family="Times,serif" font-size="10.00" fill="#767676">^1.4</text>
</g>
<!-- guzzlehttp/promises&#45;&gt;php -->
<g id="edge6" class="edge"><title>guzzlehttp/promises&#45;&gt;php</title>
<path fill="none" stroke="#1a2833" d="M236.6,-136.902C234.067,-114.103 229.553,-73.4791 226.543,-46.3861"/>
<polygon fill="#1a2833" stroke="#1a2833" points="230.015,-45.9377 225.432,-36.3854 223.058,-46.7108 230.015,-45.9377"/>
<text text-anchor="middle" x="251" y="-98.5" font-family="Times,serif" font-size="10.00" fill="#767676">&gt;=5.5.0</text>
</g>
<!-- guzzlehttp/psr7&#45;&gt;php -->
<g id="edge7" class="edge"><title>guzzlehttp/psr7&#45;&gt;php</title>
<path fill="none" stroke="#1a2833" d="M337.323,-190.776C336.452,-175.629 333.381,-153.489 323.5,-137 317.006,-126.163 310.329,-128.037 301.5,-119 288.989,-106.194 260.899,-69.3068 242.071,-44.0992"/>
<polygon fill="#1a2833" stroke="#1a2833" points="244.856,-41.9798 236.076,-36.05 239.242,-46.1608 244.856,-41.9798"/>
<text text-anchor="middle" x="318" y="-98.5" font-family="Times,serif" font-size="10.00" fill="#767676">&gt;=5.4.0</text>
</g>
<!-- psr/http&#45;message -->
<g id="node7" class="node"><title>psr/http&#45;message</title>
<path fill="#eeeeee" stroke="black" d="M475.5,-119C475.5,-119 355.5,-119 355.5,-119 349.5,-119 343.5,-113 343.5,-107 343.5,-107 343.5,-95 343.5,-95 343.5,-89 349.5,-83 355.5,-83 355.5,-83 475.5,-83 475.5,-83 481.5,-83 487.5,-89 487.5,-95 487.5,-95 487.5,-107 487.5,-107 487.5,-113 481.5,-119 475.5,-119"/>
<text text-anchor="middle" x="415.5" y="-97.3" font-family="Times,serif" font-size="14.00" fill="#314b5f">psr/http&#45;message: 1.0.1</text>
</g>
<!-- guzzlehttp/psr7&#45;&gt;psr/http&#45;message -->
<g id="edge8" class="edge"><title>guzzlehttp/psr7&#45;&gt;psr/http&#45;message</title>
<path fill="none" stroke="#1a2833" d="M350.032,-190.969C362.636,-173.84 382.224,-147.221 396.692,-127.559"/>
<polygon fill="#1a2833" stroke="#1a2833" points="399.632,-129.469 402.74,-119.341 393.994,-125.321 399.632,-129.469"/>
<text text-anchor="middle" x="398" y="-152.5" font-family="Times,serif" font-size="10.00" fill="#767676">~1.0</text>
</g>
<!-- psr/http&#45;message&#45;&gt;php -->
<g id="edge14" class="edge"><title>psr/http&#45;message&#45;&gt;php</title>
<path fill="none" stroke="#1a2833" d="M375.125,-82.9579C354.579,-74.2863 329.21,-63.5801 306.5,-54 291.398,-47.6291 274.749,-40.608 260.351,-34.5371"/>
<polygon fill="#1a2833" stroke="#1a2833" points="261.364,-31.1659 250.79,-30.5056 258.645,-37.6159 261.364,-31.1659"/>
<text text-anchor="middle" x="347" y="-57" font-family="Times,serif" font-size="10.00" fill="#767676">&gt;=5.3.0</text>
</g>
<!-- masterminds/html5&#45;&gt;php -->
<g id="edge13" class="edge"><title>masterminds/html5&#45;&gt;php</title>
<path fill="none" stroke="#1a2833" d="M519.869,-273.938C528.765,-234.857 544.329,-137.997 496.5,-83 465.873,-47.7839 327.975,-29.4176 260.677,-22.4163"/>
<polygon fill="#1a2833" stroke="#1a2833" points="260.811,-18.9121 250.51,-21.3894 260.107,-25.8766 260.811,-18.9121"/>
<text text-anchor="middle" x="545" y="-152.5" font-family="Times,serif" font-size="10.00" fill="#767676">&gt;=5.3.0</text>
</g>
<!-- ext&#45;libxml -->
<g id="node9" class="node"><title>ext&#45;libxml</title>
<path fill="#eeeeee" stroke="black" d="M605.5,-227C605.5,-227 555.5,-227 555.5,-227 549.5,-227 543.5,-221 543.5,-215 543.5,-215 543.5,-203 543.5,-203 543.5,-197 549.5,-191 555.5,-191 555.5,-191 605.5,-191 605.5,-191 611.5,-191 617.5,-197 617.5,-203 617.5,-203 617.5,-215 617.5,-215 617.5,-221 611.5,-227 605.5,-227"/>
<text text-anchor="middle" x="580.5" y="-205.3" font-family="Times,serif" font-size="14.00" fill="#314b5f">ext&#45;libxml</text>
</g>
<!-- masterminds/html5&#45;&gt;ext&#45;libxml -->
<g id="edge12" class="edge"><title>masterminds/html5&#45;&gt;ext&#45;libxml</title>
<path fill="none" stroke="#1a2833" d="M529.285,-273.822C538.333,-262.546 550.318,-247.611 560.419,-235.024"/>
<polygon fill="#1a2833" stroke="#1a2833" points="563.206,-237.143 566.735,-227.153 557.747,-232.762 563.206,-237.143"/>
<text text-anchor="middle" x="554.5" y="-248" font-family="Times,serif" font-size="10.00" fill="#767676">*</text>
</g>
</g>
</svg>
