<?xml version="1.0" encoding="UTF-8" standalone="no"?>
<!DOCTYPE svg PUBLIC "-//W3C//DTD SVG 1.1//EN"
 "http://www.w3.org/Graphics/SVG/1.1/DTD/svg11.dtd">
<!-- Generated by graphviz version 2.38.0 (20140413.2041)
 -->
<!-- Title: G Pages: 1 -->
<svg width="159pt" height="127pt"
 viewBox="0.00 0.00 159.00 127.00" xmlns="http://www.w3.org/2000/svg" xmlns:xlink="http://www.w3.org/1999/xlink">
<g id="graph0" class="graph" transform="scale(1 1) rotate(0) translate(4 123)">
<title>G</title>
<polygon fill="white" stroke="none" points="-4,4 -4,-123 155,-123 155,4 -4,4"/>
<!-- jkphl/rdfa&#45;lite&#45;microdata -->
<g id="node1" class="node"><title>jkphl/rdfa&#45;lite&#45;microdata</title>
<path fill="#eeeeee" stroke="black" stroke-width="2" d="M139,-119C139,-119 12,-119 12,-119 6,-119 0,-113 0,-107 0,-107 0,-95 0,-95 0,-89 6,-83 12,-83 12,-83 139,-83 139,-83 145,-83 151,-89 151,-95 151,-95 151,-107 151,-107 151,-113 145,-119 139,-119"/>
<text text-anchor="middle" x="75.5" y="-97.3" font-family="Times,serif" font-size="14.00" fill="#314b5f">jkphl/rdfa&#45;lite&#45;microdata</text>
</g>
<!-- php -->
<g id="node2" class="node"><title>php</title>
<path fill="#eeeeee" stroke="black" d="M90.5,-36C90.5,-36 60.5,-36 60.5,-36 54.5,-36 48.5,-30 48.5,-24 48.5,-24 48.5,-12 48.5,-12 48.5,-6 54.5,-0 60.5,-0 60.5,-0 90.5,-0 90.5,-0 96.5,-0 102.5,-6 102.5,-12 102.5,-12 102.5,-24 102.5,-24 102.5,-30 96.5,-36 90.5,-36"/>
<text text-anchor="middle" x="75.5" y="-14.3" font-family="Times,serif" font-size="14.00" fill="#314b5f">php</text>
</g>
<!-- jkphl/rdfa&#45;lite&#45;microdata&#45;&gt;php -->
<g id="edge1" class="edge"><title>jkphl/rdfa&#45;lite&#45;microdata&#45;&gt;php</title>
<path fill="none" stroke="#1a2833" d="M75.5,-82.822C75.5,-72.1903 75.5,-58.306 75.5,-46.2035"/>
<polygon fill="#1a2833" stroke="#1a2833" points="79.0001,-46.1532 75.5,-36.1533 72.0001,-46.1533 79.0001,-46.1532"/>
<text text-anchor="middle" x="88" y="-57" font-family="Times,serif" font-size="10.00" fill="#767676">&gt;=5.5</text>
</g>
</g>
</svg>
